<?xml version="1.0" encoding="UTF-8"?>
<svg xmlns="http://www.w3.org/2000/svg" xmlns:xlink="http://www.w3.org/1999/xlink" width="128px" height="128px" viewBox="0 0 128 128" version="1.1">
<g id="surface1">
<path style=" stroke:none;fill-rule:nonzero;fill:rgb(0%,0%,0%);fill-opacity:1;" d="M 28.136719 36.121094 L 28.136719 11.953125 C 28.136719 6.121094 31.617188 2.242188 36.597656 2.242188 L 86.742188 2.242188 C 88.386719 2.242188 89.800781 2.804688 90.960938 4.171875 L 103.636719 19.121094 C 104.796875 20.511719 105.261719 22.339844 105.261719 24.269531 L 105.261719 70.4375 L 107.246094 70.414062 L 107.246094 23.097656 C 107.246094 21.074219 106.570312 19.171875 105.347656 17.730469 L 91.972656 2.21875 C 90.75 0.804688 89.0625 0 87.332031 0 L 35.753906 0 C 30.523438 0 26.261719 4.925781 26.261719 10.976562 L 26.261719 37.171875 Z M 26.261719 84.878906 L 26.261719 117.046875 C 26.261719 123.097656 30.523438 128.023438 35.753906 128.023438 L 47.820312 128.023438 L 47.820312 125.78125 L 36.597656 125.78125 C 31.640625 125.78125 28.136719 121.878906 28.136719 116.074219 L 28.136719 85.902344 Z M 85.03125 109 "/>
<path style=" stroke:none;fill-rule:nonzero;fill:rgb(0%,0%,0%);fill-opacity:1;" d="M 100.621094 21.316406 L 88.933594 21.316406 L 88.933594 7.195312 C 88.933594 6.144531 88.933594 5.316406 88.046875 5.316406 C 87.140625 5.316406 87.164062 6.171875 87.164062 7.195312 L 87.164062 21.488281 C 87.164062 22.535156 87.878906 23.367188 88.785156 23.367188 L 100.621094 23.367188 C 101.527344 23.367188 102.246094 23.390625 102.246094 22.339844 C 102.246094 21.292969 101.507812 21.316406 100.621094 21.316406 Z M 100.621094 21.316406 "/>
<path style=" stroke:none;fill-rule:nonzero;fill:rgb(13.725491%,12.156863%,12.54902%);fill-opacity:1;" d="M 57.375 88.609375 C 54.464844 88.609375 53.851562 90.046875 53.851562 91.242188 L 53.851562 106.144531 C 53.851562 107.339844 54.464844 108.78125 57.375 108.78125 C 60.289062 108.78125 60.898438 107.339844 60.898438 106.144531 L 60.898438 91.242188 C 60.898438 90.046875 60.289062 88.609375 57.375 88.609375 Z M 55.710938 91.976562 C 55.710938 90.804688 56.214844 90.292969 57.375 90.292969 C 58.535156 90.292969 59.042969 90.804688 59.042969 91.976562 L 59.042969 105.4375 C 59.042969 106.609375 58.535156 107.121094 57.375 107.121094 C 56.214844 107.121094 55.710938 106.609375 55.710938 105.4375 Z M 55.710938 91.976562 "/>
<path style=" stroke:none;fill-rule:nonzero;fill:rgb(13.725491%,12.156863%,12.54902%);fill-opacity:1;" d="M 66.339844 74.195312 L 64.464844 74.195312 L 64.464844 86.21875 L 63.21875 86.21875 L 63.21875 87.902344 L 64.464844 87.902344 L 64.464844 111.195312 L 66.339844 111.195312 L 66.339844 87.902344 L 69.253906 87.902344 L 69.253906 86.21875 L 66.339844 86.21875 Z M 66.339844 74.195312 "/>
<path style=" stroke:none;fill-rule:nonzero;fill:rgb(13.725491%,12.156863%,12.54902%);fill-opacity:1;" d="M 73.621094 88.609375 C 70.707031 88.609375 70.097656 90.046875 70.097656 91.242188 L 70.097656 106.144531 C 70.097656 107.339844 70.707031 108.78125 73.621094 108.78125 C 76.53125 108.78125 77.140625 107.339844 77.140625 106.144531 L 77.140625 103.757812 L 75.265625 103.757812 L 75.265625 105.4375 C 75.265625 106.609375 74.757812 107.121094 73.597656 107.121094 C 72.4375 107.121094 71.933594 106.609375 71.933594 105.4375 L 71.933594 101.367188 C 72.394531 101.511719 72.945312 101.585938 73.597656 101.585938 C 76.507812 101.585938 77.121094 100.144531 77.121094 98.953125 L 77.121094 91.269531 C 77.140625 90.046875 76.53125 88.609375 73.621094 88.609375 Z M 71.953125 91.976562 C 71.953125 90.804688 72.460938 90.292969 73.621094 90.292969 C 74.78125 90.292969 75.285156 90.804688 75.285156 91.976562 L 75.285156 98.21875 C 75.285156 99.390625 74.78125 99.902344 73.621094 99.902344 C 72.460938 99.902344 71.953125 99.390625 71.953125 98.21875 Z M 71.953125 91.976562 "/>
<path style=" stroke:none;fill-rule:nonzero;fill:rgb(13.725491%,12.156863%,12.54902%);fill-opacity:1;" d="M 83.535156 88.609375 C 80.625 88.609375 80.011719 90.046875 80.011719 91.242188 L 80.011719 117.902344 L 81.890625 117.902344 L 81.890625 108.5625 C 82.351562 108.707031 82.902344 108.78125 83.554688 108.78125 C 86.464844 108.78125 87.078125 107.339844 87.078125 106.144531 L 87.078125 91.242188 C 87.078125 90.046875 86.464844 88.609375 83.535156 88.609375 Z M 81.890625 91.976562 C 81.890625 90.804688 82.394531 90.292969 83.554688 90.292969 C 84.714844 90.292969 85.222656 90.804688 85.222656 91.976562 L 85.222656 105.4375 C 85.222656 106.609375 84.714844 107.121094 83.554688 107.121094 C 82.394531 107.121094 81.890625 106.609375 81.890625 105.4375 Z M 81.890625 91.976562 "/>
<path style=" stroke:none;fill-rule:nonzero;fill:rgb(13.725491%,12.156863%,12.54902%);fill-opacity:1;" d="M 93.46875 88.609375 C 90.558594 88.609375 89.949219 90.046875 89.949219 91.242188 L 89.949219 93.632812 L 91.824219 93.632812 L 91.824219 91.953125 C 91.824219 90.78125 92.332031 90.269531 93.492188 90.269531 C 94.652344 90.269531 95.15625 90.78125 95.15625 91.953125 L 95.15625 96.023438 C 94.695312 95.878906 94.144531 95.804688 93.492188 95.804688 C 90.582031 95.804688 89.96875 97.242188 89.96875 98.4375 L 89.96875 106.121094 C 89.96875 107.316406 90.582031 108.757812 93.492188 108.757812 C 96.402344 108.757812 97.015625 107.316406 97.015625 106.121094 L 97.015625 91.21875 C 97.015625 90.046875 96.382812 88.609375 93.46875 88.609375 Z M 91.804688 99.171875 C 91.804688 98 92.308594 97.488281 93.46875 97.488281 C 94.628906 97.488281 95.136719 98 95.136719 99.171875 L 95.136719 105.414062 C 95.136719 106.585938 94.628906 107.097656 93.46875 107.097656 C 92.308594 107.097656 91.804688 106.585938 91.804688 105.414062 Z M 91.804688 99.171875 "/>
<path style=" stroke:none;fill-rule:nonzero;fill:rgb(13.725491%,12.156863%,12.54902%);fill-opacity:1;" d="M 105.21875 88.828125 C 104.757812 88.683594 104.207031 88.609375 103.554688 88.609375 C 100.644531 88.609375 100.03125 90.046875 100.03125 91.242188 L 100.03125 106.144531 C 100.03125 107.339844 100.644531 108.78125 103.554688 108.78125 C 106.464844 108.78125 107.078125 107.339844 107.078125 106.144531 L 107.078125 74.195312 L 105.199219 74.195312 L 105.199219 88.828125 Z M 101.910156 91.976562 C 101.910156 90.804688 102.414062 90.292969 103.574219 90.292969 C 104.734375 90.292969 105.242188 90.804688 105.242188 91.976562 L 105.242188 105.4375 C 105.242188 106.609375 104.734375 107.121094 103.574219 107.121094 C 102.414062 107.121094 101.910156 106.609375 101.910156 105.4375 Z M 101.910156 91.976562 "/>
<path style=" stroke:none;fill-rule:nonzero;fill:rgb(13.725491%,12.156863%,12.54902%);fill-opacity:1;" d="M 111.886719 88.609375 L 110.007812 88.609375 L 110.007812 93.414062 L 107.921875 93.414062 L 107.921875 95.097656 L 110.007812 95.097656 L 110.007812 99.902344 L 111.886719 99.902344 L 111.886719 95.097656 L 113.953125 95.097656 L 113.953125 93.414062 L 111.886719 93.414062 Z M 111.886719 88.609375 "/>
<path style=" stroke:none;fill-rule:nonzero;fill:rgb(13.725491%,12.156863%,12.54902%);fill-opacity:1;" d="M 118.742188 93.414062 L 118.742188 88.609375 L 116.863281 88.609375 L 116.863281 93.414062 L 114.777344 93.414062 L 114.777344 95.097656 L 116.863281 95.097656 L 116.863281 99.902344 L 118.742188 99.902344 L 118.742188 95.097656 L 120.808594 95.097656 L 120.808594 93.414062 Z M 118.742188 93.414062 "/>
<path style=" stroke:none;fill-rule:nonzero;fill:rgb(13.725491%,12.156863%,12.54902%);fill-opacity:1;" d="M 49.464844 74.195312 C 46.554688 74.195312 45.941406 75.632812 45.941406 76.828125 L 45.941406 122.074219 L 47.820312 122.074219 L 47.820312 77.5625 C 47.820312 76.390625 48.324219 75.878906 49.488281 75.878906 C 50.648438 75.878906 51.152344 76.390625 51.152344 77.5625 L 51.152344 108.78125 L 53.03125 108.78125 L 53.03125 76.828125 C 53.007812 75.632812 52.398438 74.195312 49.464844 74.195312 Z M 49.464844 74.195312 "/>
<path style=" stroke:none;fill-rule:nonzero;fill:rgb(56.470591%,89.803922%,60.392159%);fill-opacity:1;" d="M 27.316406 38.878906 C 29.109375 36.828125 31.683594 36.269531 34.023438 35.414062 C 36.703125 35.242188 39.382812 36.195312 41.808594 37.488281 C 42.863281 37.976562 42.800781 39.414062 43.03125 40.511719 C 42.273438 40.707031 41.511719 40.878906 40.753906 41.097656 C 41.089844 40.488281 41.40625 39.902344 41.722656 39.292969 C 41.703125 38.707031 41.113281 38.488281 40.816406 38.074219 C 40.414062 38.390625 40.015625 38.707031 39.613281 39.023438 C 39.339844 38.757812 39.066406 38.488281 38.792969 38.21875 C 38.050781 38.339844 37.25 38.464844 36.554688 38 C 35.375 37.390625 34.109375 36.925781 32.800781 37.074219 C 32.210938 37.367188 31.746094 37.902344 31.261719 38.367188 C 31.261719 38.121094 31.28125 37.632812 31.28125 37.390625 C 31.007812 37.757812 30.734375 38.121094 30.480469 38.511719 C 28.664062 38.730469 27.820312 40.902344 28.222656 42.78125 C 27.84375 43.121094 27.441406 43.488281 27.0625 43.828125 C 27.484375 42.878906 27.84375 41.828125 27.355469 40.804688 C 26.007812 41.269531 25.902344 42.976562 25.289062 44.195312 C 24.65625 45.535156 23.582031 46.5625 23.074219 47.976562 C 23.03125 48.757812 23.136719 49.511719 23.203125 50.292969 C 22.695312 50.121094 22.1875 49.976562 21.703125 49.804688 C 22.96875 45.828125 24.507812 41.730469 27.316406 38.878906 Z M 27.316406 38.878906 "/>
<path style=" stroke:none;fill-rule:nonzero;fill:rgb(36.078432%,80.784315%,45.490196%);fill-opacity:1;" d="M 31.261719 38.390625 C 31.765625 37.925781 32.210938 37.367188 32.800781 37.097656 C 34.109375 36.953125 35.375 37.414062 36.554688 38.023438 C 36.386719 38.878906 36.132812 39.707031 35.796875 40.488281 C 34.78125 39.878906 33.769531 39.21875 32.820312 38.511719 C 33.011719 38.953125 33.199219 39.390625 33.390625 39.828125 C 33.179688 40.171875 32.949219 40.488281 32.738281 40.828125 C 32.316406 40.195312 31.894531 39.5625 31.492188 38.902344 C 31.34375 39.855469 30.734375 40.5625 29.890625 40.023438 C 30.078125 39.511719 30.269531 39.023438 30.457031 38.535156 C 30.710938 38.144531 30.984375 37.78125 31.261719 37.414062 C 31.28125 37.632812 31.261719 38.121094 31.261719 38.390625 Z M 31.261719 38.390625 "/>
<path style=" stroke:none;fill-rule:nonzero;fill:rgb(45.882353%,83.92157%,43.529412%);fill-opacity:1;" d="M 36.554688 38 C 37.25 38.464844 38.03125 38.339844 38.792969 38.21875 C 39.066406 38.488281 39.339844 38.757812 39.613281 39.023438 C 40.015625 38.707031 40.414062 38.390625 40.816406 38.074219 C 41.089844 38.488281 41.703125 38.707031 41.722656 39.292969 C 41.429688 39.902344 41.089844 40.511719 40.753906 41.097656 C 40.5625 41.144531 40.183594 41.242188 40.015625 41.316406 C 40.394531 41.855469 40.773438 42.390625 41.152344 42.902344 C 39.550781 43 38.390625 41.730469 37.167969 40.804688 C 36.046875 41 35.246094 42.390625 34.085938 42.535156 C 33.515625 42.242188 32.988281 41.855469 32.460938 41.464844 C 32.273438 42.171875 32.144531 42.902344 31.789062 43.511719 C 31.261719 43.925781 30.585938 43.925781 29.972656 44.121094 C 29.996094 44.4375 30.035156 44.78125 30.058594 45.097656 C 29.402344 44.367188 28.601562 43.683594 27.671875 44.171875 C 28.347656 44.976562 27.335938 45.292969 26.871094 45.660156 C 25.964844 46.242188 24.953125 47 24.847656 48.316406 C 24.59375 49.074219 24.867188 50.242188 24.128906 50.660156 C 23.265625 50.925781 22.378906 50.757812 21.515625 50.730469 C 21.578125 50.488281 21.683594 50.023438 21.746094 49.78125 C 22.253906 49.953125 22.757812 50.097656 23.242188 50.269531 C 23.160156 49.488281 23.054688 48.730469 23.117188 47.953125 C 23.625 46.535156 24.699219 45.511719 25.332031 44.171875 C 25.945312 42.953125 26.050781 41.242188 27.398438 40.78125 C 27.882812 41.804688 27.527344 42.855469 27.105469 43.804688 C 27.484375 43.4375 27.863281 43.097656 28.265625 42.757812 C 27.863281 40.878906 28.707031 38.707031 30.523438 38.488281 C 30.332031 38.976562 30.140625 39.488281 29.953125 39.976562 C 30.773438 40.511719 31.40625 39.804688 31.554688 38.855469 C 31.957031 39.511719 32.378906 40.144531 32.800781 40.78125 C 33.011719 40.4375 33.222656 40.121094 33.453125 39.78125 C 33.265625 39.339844 33.074219 38.902344 32.882812 38.464844 C 33.855469 39.171875 34.847656 39.804688 35.859375 40.4375 C 36.132812 39.707031 36.386719 38.878906 36.554688 38 M 28.136719 53.511719 C 28.601562 53.609375 29.046875 53.707031 29.507812 53.828125 C 28.980469 55.464844 28.242188 57.121094 28.328125 58.925781 C 28.601562 60.097656 29.445312 60.976562 30.078125 61.925781 C 29.152344 62.242188 27.863281 62 27.230469 63 C 26.851562 64.953125 28.390625 66.074219 29.382812 67.269531 C 27.949219 66.660156 26.34375 65.78125 25.839844 63.953125 C 26.535156 62.953125 27.398438 62.144531 28.308594 61.367188 C 27 59.074219 26.429688 55.707031 28.136719 53.511719 M 42.757812 57.632812 C 43.09375 57.976562 43.453125 58.316406 43.789062 58.632812 C 43.832031 59.292969 43.875 59.976562 43.894531 60.632812 C 43.304688 59.757812 42.777344 58.804688 42.757812 57.632812 M 51.742188 58.144531 C 52.101562 57.5625 52.714844 57.609375 53.09375 58.121094 C 53.8125 59.195312 54.210938 60.464844 54.695312 61.683594 C 55.308594 61.730469 55.921875 61.78125 56.511719 61.828125 C 55.308594 62.339844 54.167969 63.121094 54 64.730469 C 53.496094 63.902344 54.234375 63.144531 54.527344 62.390625 C 53.851562 60.757812 52.207031 59.925781 51.742188 58.144531 M 34.53125 59.195312 L 34.886719 58.976562 C 34.953125 60.074219 35.394531 61.339844 34.699219 62.269531 C 34.003906 62.195312 33.328125 62.144531 32.652344 62 C 33.558594 61.316406 34.234375 60.464844 34.53125 59.195312 M 43.894531 60.660156 C 44.402344 61.4375 44.972656 62.121094 45.605469 62.757812 C 46.28125 61.855469 47.777344 60.414062 48.390625 62.121094 C 47.375 62.683594 46.109375 63.097656 45.773438 64.511719 C 45.773438 64.5625 45.753906 64.632812 45.753906 64.683594 C 45.898438 65.925781 46.300781 67.121094 46.617188 68.316406 C 44.296875 66.585938 45.6875 62.855469 43.894531 60.660156 M 56.511719 61 C 57.503906 61.121094 58.558594 61.390625 59.316406 62.242188 C 58.367188 62.171875 57.398438 62.21875 56.511719 61.828125 C 56.511719 61.632812 56.511719 61.21875 56.511719 61 M 54.023438 67.292969 C 55.222656 67.902344 56.40625 68.5625 57.671875 69.046875 C 58.386719 68.707031 59.402344 66.878906 59.992188 68.21875 C 59.0625 69.195312 57.777344 70.195312 56.46875 69.855469 C 55.457031 69.292969 54.800781 68.171875 54.023438 67.292969 M 20.542969 67.511719 C 20.777344 67.5625 21.21875 67.632812 21.472656 67.660156 C 22.484375 70.367188 22.527344 73.511719 23.917969 76.046875 C 24.71875 77.5625 25.375 79.144531 26.132812 80.683594 C 26.933594 82.269531 28.265625 83.339844 29.507812 84.4375 C 32.167969 86.707031 36.554688 86.367188 38.433594 83.023438 C 39.636719 80.046875 38.136719 76.902344 37.101562 74.171875 C 35.332031 70.953125 30.710938 73.390625 30.839844 76.902344 C 30.3125 73.414062 34.171875 70.464844 36.746094 72.242188 C 38.582031 73.609375 39.085938 76.195312 39.804688 78.414062 C 40.648438 81.074219 39.402344 84.21875 37.230469 85.390625 C 35.542969 86.632812 33.476562 86.144531 31.597656 86.144531 C 29.023438 86 27.355469 83.585938 25.691406 81.660156 C 24.066406 79.367188 23.011719 76.632812 21.746094 74.046875 C 21.070312 71.976562 20.691406 69.757812 20.542969 67.511719 M 34.214844 76.4375 C 34.507812 76.828125 34.742188 77.269531 35.035156 77.683594 C 34.320312 78.757812 33.160156 78.707031 32.125 78.535156 C 31.703125 78 31.261719 77.464844 30.839844 76.925781 C 31.851562 77.632812 32.988281 79.074219 34.253906 78.171875 C 34.214844 77.585938 34.214844 77.023438 34.214844 76.4375 Z M 34.214844 76.4375 "/>
<path style=" stroke:none;fill-rule:nonzero;fill:rgb(56.078434%,90.588236%,44.705883%);fill-opacity:1;" d="M 34.042969 42.535156 C 35.203125 42.390625 36.007812 41 37.125 40.804688 C 38.371094 41.757812 39.53125 43 41.113281 42.902344 C 40.730469 42.367188 40.351562 41.828125 39.972656 41.316406 C 40.164062 41.269531 40.542969 41.144531 40.710938 41.097656 C 41.46875 40.878906 42.230469 40.707031 42.988281 40.511719 C 43.179688 41.339844 43.367188 42.195312 43.601562 43.023438 C 43.242188 43.4375 42.882812 43.878906 42.503906 44.292969 C 43.285156 45.535156 44 46.855469 44.78125 48.097656 C 46.40625 47.585938 47.441406 49.390625 48.15625 50.804688 C 46.703125 50.707031 45.054688 50.683594 43.917969 49.464844 C 43.222656 48.730469 42.546875 47.976562 41.808594 47.269531 C 41.363281 47.414062 40.921875 47.5625 40.480469 47.707031 C 40.121094 46.707031 39.910156 45.390625 38.8125 45.144531 C 38.898438 45.660156 39.003906 46.144531 39.085938 46.660156 C 38.433594 47.097656 37.714844 47.292969 36.976562 47.046875 C 37.273438 46.339844 37.589844 45.660156 37.90625 44.953125 C 36.996094 44.855469 36.46875 45.757812 35.964844 46.464844 C 35.859375 46.097656 35.753906 45.730469 35.667969 45.367188 C 35.332031 45.316406 35.015625 45.21875 34.675781 45.195312 C 34.191406 45.316406 34.003906 46.121094 33.476562 46.144531 C 32.609375 46.046875 31.789062 45.632812 30.902344 45.585938 C 29.847656 45.757812 28.855469 46.292969 27.820312 46.632812 C 27.484375 46.316406 27.125 46 26.789062 45.683594 C 27.25 45.292969 28.285156 45 27.589844 44.195312 C 28.539062 43.707031 29.320312 44.390625 29.972656 45.121094 C 29.953125 44.804688 29.910156 44.464844 29.890625 44.144531 C 30.5 43.976562 31.15625 43.953125 31.703125 43.535156 C 32.0625 42.925781 32.1875 42.171875 32.378906 41.488281 C 32.949219 41.855469 33.476562 42.242188 34.042969 42.535156 Z M 34.042969 42.535156 "/>
<path style=" stroke:none;fill-rule:nonzero;fill:rgb(66.274512%,95.294118%,49.411765%);fill-opacity:1;" d="M 42.523438 44.292969 C 42.882812 43.878906 43.242188 43.4375 43.621094 43.023438 C 43.980469 44.269531 44.445312 45.535156 45.351562 46.367188 C 46.871094 47.707031 48.453125 49.171875 50.351562 49.683594 C 52.039062 50.046875 53.894531 49.828125 55.351562 48.707031 C 56.617188 47.390625 57.207031 45.464844 58.515625 44.195312 C 59.738281 44.902344 61.109375 45.21875 62.292969 46.023438 C 63.515625 46.925781 64.105469 48.535156 64.84375 49.925781 C 64.042969 50.097656 63.261719 50.292969 62.460938 50.488281 C 62.753906 51.074219 63.070312 51.683594 63.386719 52.269531 C 63.175781 52.632812 62.964844 53 62.777344 53.390625 C 62.375 52.660156 61.996094 51.925781 61.617188 51.195312 C 60.75 51.4375 59.929688 51.828125 59.191406 52.367188 C 59.273438 52.828125 59.359375 53.292969 59.445312 53.757812 C 57.585938 52.660156 55.605469 53.757812 53.9375 54.828125 C 53.429688 55.144531 52.902344 55.511719 52.398438 55.828125 C 51.34375 55.171875 50.308594 54.488281 49.191406 53.976562 C 48.75 54.804688 48.21875 55.609375 47.691406 56.390625 C 47.503906 55.757812 47.292969 55.121094 47.125 54.464844 C 46.933594 54.488281 46.554688 54.5625 46.363281 54.585938 C 46.28125 55.488281 46.300781 56.390625 46.40625 57.292969 C 45.898438 57.21875 45.371094 57.144531 44.867188 57.074219 C 45.097656 55.855469 45.371094 54.660156 45.582031 53.414062 C 45.332031 53.4375 44.804688 53.488281 44.550781 53.511719 C 43.683594 55.046875 43.644531 56.902344 43.8125 58.683594 C 43.453125 58.339844 43.117188 58 42.777344 57.683594 C 42.820312 56.414062 42.96875 55.171875 43.050781 53.902344 C 41.914062 53.339844 41.449219 54.855469 41.238281 55.828125 C 40.605469 55.585938 39.972656 55.367188 39.359375 55.097656 C 37.945312 54.585938 37.019531 53.144531 35.648438 52.511719 C 34.929688 52.171875 34.402344 51.488281 33.855469 50.878906 C 33.792969 51.121094 33.664062 51.609375 33.621094 51.855469 C 34.171875 52.925781 34.171875 54.316406 33.09375 54.976562 C 32.757812 54.925781 32.082031 54.828125 31.722656 54.757812 C 32.863281 56.097656 34.53125 56.339844 36.027344 56.804688 C 35.816406 56.976562 35.394531 57.316406 35.183594 57.488281 C 33.75 56.953125 32.1875 56.902344 30.839844 56.046875 C 30.796875 55.414062 30.734375 54.757812 30.691406 54.121094 C 30.289062 54.023438 29.910156 53.953125 29.507812 53.855469 C 29.046875 53.757812 28.601562 53.660156 28.136719 53.535156 C 27.800781 53.074219 27.421875 52.269531 26.808594 52.683594 C 26.324219 53.195312 25.921875 53.804688 25.457031 54.367188 C 25.183594 53.925781 24.890625 53.488281 24.613281 53.046875 C 22.546875 53.339844 22.714844 56.21875 21.386719 57.511719 C 20.542969 58.21875 20.585938 59.5625 19.804688 60.339844 C 19.699219 59.242188 19.636719 58.171875 19.742188 57.074219 C 20.164062 55.144531 20.902344 53.339844 21.324219 51.390625 C 21.367188 51.242188 21.429688 50.925781 21.472656 50.757812 C 22.335938 50.804688 23.242188 50.953125 24.085938 50.683594 C 24.824219 50.269531 24.53125 49.097656 24.804688 48.339844 C 24.929688 47.023438 25.921875 46.269531 26.828125 45.683594 C 27.167969 46 27.527344 46.316406 27.863281 46.632812 C 28.898438 46.269531 29.890625 45.757812 30.945312 45.585938 C 31.828125 45.632812 32.652344 46.046875 33.515625 46.144531 C 34.042969 46.121094 34.214844 45.316406 34.71875 45.195312 C 35.058594 45.21875 35.375 45.316406 35.710938 45.367188 C 35.816406 45.730469 35.921875 46.097656 36.007812 46.464844 C 36.535156 45.757812 37.039062 44.855469 37.945312 44.953125 C 37.628906 45.660156 37.335938 46.339844 37.019531 47.046875 C 37.757812 47.292969 38.476562 47.074219 39.128906 46.660156 C 39.023438 46.144531 38.9375 45.660156 38.855469 45.144531 C 39.953125 45.367188 40.164062 46.683594 40.519531 47.707031 C 40.964844 47.5625 41.40625 47.414062 41.851562 47.269531 C 42.566406 47.976562 43.261719 48.730469 43.960938 49.464844 C 45.097656 50.683594 46.742188 50.707031 48.199219 50.804688 C 47.503906 49.414062 46.449219 47.585938 44.824219 48.097656 C 44.042969 46.855469 43.304688 45.535156 42.523438 44.292969 Z M 42.523438 44.292969 "/>
<path style=" stroke:none;fill-rule:nonzero;fill:rgb(52.941179%,87.058824%,44.313726%);fill-opacity:1;" d="M 62.480469 50.488281 C 63.28125 50.292969 64.0625 50.121094 64.863281 49.925781 C 65.117188 50.5625 65.328125 51.195312 65.539062 51.828125 C 63.347656 54.367188 60.117188 55.023438 57.226562 55.804688 C 56.027344 56.21875 54.90625 55.488281 53.917969 54.828125 C 55.582031 53.78125 57.566406 52.660156 59.421875 53.757812 C 59.339844 53.292969 59.253906 52.828125 59.167969 52.367188 C 59.929688 51.828125 60.75 51.4375 61.59375 51.195312 C 61.976562 51.925781 62.375 52.660156 62.753906 53.390625 C 62.945312 53.023438 63.15625 52.632812 63.367188 52.269531 C 63.09375 51.683594 62.777344 51.074219 62.480469 50.488281 Z M 62.480469 50.488281 "/>
<path style=" stroke:none;fill-rule:nonzero;fill:rgb(98.431373%,99.215686%,98.823529%);fill-opacity:1;" d="M 46.53125 44.78125 L 46.492188 45.074219 C 48.304688 47.171875 51.003906 48.464844 53.535156 47.609375 C 54.507812 47 55.476562 46.242188 55.941406 45.046875 C 57.523438 41.269531 57.796875 36.804688 56.722656 32.804688 C 55.75 32 54.824219 31.074219 54.253906 29.855469 C 53.09375 28 51.175781 26.046875 49.066406 26.925781 C 46.914062 27.269531 45.394531 29.464844 44.804688 31.757812 C 44 34.683594 43.726562 38 44.824219 40.878906 C 45.035156 42.316406 45.265625 44.097656 46.53125 44.78125 Z M 50.582031 37.585938 C 51.046875 39.171875 50.289062 41.367188 48.601562 41.390625 C 47.839844 40.78125 46.785156 40.21875 46.953125 38.953125 C 46.660156 36.609375 49.402344 36.683594 50.582031 37.585938 Z M 50.582031 37.585938 "/>
<path style=" stroke:none;fill-rule:nonzero;fill:rgb(98.431373%,99.215686%,98.823529%);fill-opacity:1;" d="M 64.78125 46.804688 C 65.75 45.609375 66.933594 44.683594 67.964844 43.585938 C 69.738281 40.585938 71.234375 36.609375 69.886719 33 C 69.421875 30.609375 67.015625 29.78125 65.140625 30.046875 C 62.671875 30.535156 59.949219 31.5625 58.640625 34.269531 C 58.683594 36.902344 59.042969 39.535156 58.578125 42.144531 C 60.984375 42.878906 63.597656 44.097656 64.78125 46.804688 Z M 66.550781 35.707031 C 67.039062 35.585938 67.542969 35.4375 68.027344 35.269531 C 68.578125 36.242188 68.554688 37.632812 68.261719 38.707031 C 67.289062 39.804688 65.898438 38.683594 65.496094 37.488281 C 65.855469 36.878906 66.214844 36.292969 66.550781 35.707031 Z M 66.550781 35.707031 "/>
<path style=" stroke:none;fill-rule:nonzero;fill:rgb(13.725491%,12.156863%,12.54902%);fill-opacity:1;" d="M 56.511719 61 C 56.511719 61.023438 56.511719 61.023438 56.511719 61 C 56.53125 61.023438 56.53125 61.023438 56.511719 61 C 56.53125 61.023438 56.53125 61.023438 56.511719 61 Z M 56.511719 61 "/>
<path style=" stroke:none;fill-rule:nonzero;fill:rgb(100%,100%,100%);fill-opacity:1;" d="M 14.742188 62.609375 C 14.511719 63.21875 14.234375 63.855469 13.960938 64.4375 C 14.195312 65.21875 14.550781 65.953125 14.972656 66.609375 C 15.101562 66.535156 15.355469 66.414062 15.460938 66.367188 C 14.550781 65.144531 15.269531 63.683594 15.859375 62.511719 C 15.480469 62.585938 15.101562 62.609375 14.742188 62.609375 Z M 14.742188 62.609375 "/>
<path style=" stroke:none;fill-rule:nonzero;fill:rgb(100%,100%,100%);fill-opacity:1;" d="M 17.378906 63.074219 L 17.292969 62.804688 C 17.253906 62.902344 17.1875 63.097656 17.167969 63.195312 L 16.9375 63.511719 C 16.894531 63.5625 16.808594 63.683594 16.789062 63.730469 C 16.238281 64.269531 16.34375 65.097656 16.28125 65.828125 C 16.367188 66 16.554688 66.367188 16.640625 66.5625 C 17.589844 67.21875 17.398438 64.804688 16.746094 64.757812 C 17.148438 64.195312 17.589844 63.660156 17.71875 62.925781 Z M 17.378906 63.074219 "/>
<path style=" stroke:none;fill-rule:nonzero;fill:rgb(13.725491%,12.156863%,12.54902%);fill-opacity:1;" d="M 48.601562 41.390625 C 50.289062 41.390625 51.027344 39.171875 50.582031 37.585938 C 49.402344 36.683594 46.679688 36.609375 46.953125 38.925781 C 46.785156 40.195312 47.839844 40.78125 48.601562 41.390625 Z M 48.601562 41.390625 "/>
<path style=" stroke:none;fill-rule:nonzero;fill:rgb(13.725491%,12.156863%,12.54902%);fill-opacity:1;" d="M 68.261719 38.683594 C 68.554688 37.609375 68.578125 36.21875 68.027344 35.242188 C 67.542969 35.414062 67.058594 35.5625 66.550781 35.683594 C 66.195312 36.269531 65.855469 36.855469 65.496094 37.4375 C 65.898438 38.660156 67.269531 39.78125 68.261719 38.683594 Z M 68.261719 38.683594 "/>
<path style=" stroke:none;fill-rule:nonzero;fill:rgb(13.725491%,12.156863%,12.54902%);fill-opacity:1;" d="M 67.332031 62.269531 C 65.160156 61.828125 62.964844 62.242188 60.792969 62.195312 C 59.824219 61.4375 58.875 60.5625 57.671875 60.464844 C 57.292969 60.660156 56.910156 60.828125 56.53125 61 C 57.523438 61.121094 58.558594 61.390625 59.316406 62.21875 C 58.367188 62.144531 57.398438 62.195312 56.511719 61.804688 C 55.308594 62.316406 54.167969 63.097656 54 64.707031 C 53.496094 63.878906 54.234375 63.121094 54.527344 62.367188 C 53.851562 60.730469 52.230469 59.878906 51.742188 58.121094 C 52.101562 57.535156 52.714844 57.585938 53.09375 58.097656 C 53.8125 59.171875 54.210938 60.4375 54.695312 61.660156 C 55.308594 61.707031 55.921875 61.757812 56.511719 61.804688 C 56.511719 61.609375 56.511719 61.195312 56.511719 61 C 56.214844 61.144531 55.898438 61.292969 55.605469 61.464844 C 55.078125 60.121094 54.632812 58.757812 54.253906 57.367188 C 54.972656 57.5625 55.667969 57.855469 56.382812 58.023438 C 59.675781 57.4375 63.199219 56.683594 65.773438 54.046875 C 66.320312 53.414062 67.289062 52.855469 67.121094 51.804688 C 67.058594 51.269531 66.910156 50.757812 66.699219 50.292969 C 66.339844 49.414062 65.835938 48.609375 65.519531 47.683594 C 66.257812 47.367188 67.015625 47.046875 67.734375 46.660156 C 70.308594 43.757812 71.59375 39.609375 71.867188 35.511719 C 71.617188 33.339844 71.089844 30.953125 69.632812 29.414062 C 66.972656 27.878906 63.851562 28.367188 61.152344 29.488281 C 59.929688 30.046875 59.042969 31.195312 58.007812 32.121094 C 57.1875 31.902344 56.679688 30.804688 56.132812 30.074219 C 55.078125 28 53.640625 26.097656 51.679688 25.195312 C 50.035156 25.121094 48.15625 24.609375 46.742188 25.828125 C 46.027344 26.367188 45.226562 26.855469 44.71875 27.707031 C 43.578125 30.171875 42.925781 32.902344 42.734375 35.660156 C 42.378906 35.488281 42.019531 35.339844 41.660156 35.171875 C 39.148438 34.097656 36.535156 33.367188 33.855469 33.464844 C 32 33.878906 30.183594 34.511719 28.453125 35.414062 C 24.929688 37.535156 22.695312 41.683594 21.386719 45.902344 C 20.585938 47.757812 20.015625 49.707031 19.699219 51.730469 C 19.40625 53.5625 18.792969 55.339844 18.707031 57.21875 C 18.707031 58.488281 18.792969 59.757812 18.773438 61.023438 C 18.730469 61.046875 18.667969 61.097656 18.625 61.121094 C 17.484375 61.855469 16.132812 61.828125 14.867188 62.074219 C 13.917969 62.046875 13.011719 61.511719 12.0625 61.828125 C 12.0625 61.828125 12.042969 61.828125 12.042969 61.828125 C 11.03125 62.390625 9.953125 62.707031 8.941406 63.242188 C 8.710938 64.902344 8.476562 67.195312 10.207031 67.828125 C 10.820312 67.828125 11.453125 67.828125 12.0625 67.828125 C 14.257812 67.828125 16.429688 67.855469 18.625 67.878906 C 18.792969 67.878906 18.960938 67.878906 19.128906 67.878906 C 19.65625 71.046875 20.183594 74.316406 21.640625 77.121094 C 23.347656 80.316406 25.035156 83.660156 27.632812 86 C 30.121094 87.925781 33.265625 88 36.113281 87.414062 C 37.1875 87.269531 37.945312 86.292969 38.917969 85.828125 C 39.507812 85.414062 40.394531 85.316406 40.605469 84.4375 C 42.546875 80.78125 41.070312 76.269531 39.296875 72.925781 C 38.179688 70.632812 35.730469 70.171875 33.664062 70.269531 C 32.441406 70.488281 31.683594 71.683594 30.691406 72.414062 C 29.613281 73.171875 28.558594 74.78125 29.382812 76.242188 C 30.078125 77.78125 30.945312 79.828125 32.714844 79.707031 C 33.832031 79.5625 35.308594 79.269531 35.796875 77.925781 C 36.007812 76.292969 34.339844 75.511719 33.222656 75.21875 C 33.285156 76.023438 33.347656 76.804688 33.410156 77.609375 C 32.84375 77.144531 32.25 76.707031 31.660156 76.242188 C 32.019531 74.097656 34.085938 74.144531 35.519531 73.488281 C 36.976562 76.097656 38.496094 79.464844 37.3125 82.585938 C 35.941406 84.5625 33.476562 84.316406 31.578125 83.804688 C 29.085938 83.367188 27.421875 80.78125 26.324219 78.367188 C 24.65625 75.023438 22.632812 71.4375 22.992188 67.414062 C 24.152344 67.390625 25.332031 67.292969 26.472656 67.4375 C 27.589844 67.730469 28.582031 68.855469 29.785156 68.316406 C 32.355469 67.511719 35.035156 68 37.671875 67.953125 C 39.742188 67.828125 41.828125 67.707031 43.894531 67.855469 C 44.632812 68.097656 45.054688 69.144531 45.921875 69.074219 C 46.914062 69.464844 47.480469 68.269531 48.21875 67.78125 C 49.886719 67.707031 51.574219 67.660156 53.21875 67.78125 C 54 69.367188 55.183594 71.074219 56.871094 71.316406 C 58.917969 71.414062 60.667969 69.730469 61.765625 67.878906 C 63.21875 68.269531 64.78125 68.78125 66.195312 67.953125 C 69.253906 66.464844 72.628906 66.464844 75.769531 65.414062 C 75.769531 65.144531 75.769531 64.632812 75.769531 64.367188 C 73.304688 62.5625 70.179688 63.097656 67.332031 62.269531 Z M 53.21875 62.339844 C 51.34375 62.390625 49.105469 62.660156 47.96875 60.511719 C 47.207031 60.757812 46.449219 61.097656 46.046875 61.953125 C 45.773438 61.78125 45.203125 61.414062 44.929688 61.242188 C 44.929688 60.4375 44.929688 59.632812 44.992188 58.828125 C 45.289062 58.828125 45.898438 58.828125 46.195312 58.828125 L 46.257812 58.828125 C 47.417969 58.902344 48.558594 58.683594 49.699219 58.511719 C 50.289062 58.585938 50.4375 59.414062 50.816406 59.828125 C 51.492188 60.804688 52.441406 61.488281 53.21875 62.339844 Z M 51.890625 64.5625 C 50.4375 64.609375 49 64.609375 47.566406 64.511719 C 47.417969 63.511719 48.515625 63.707031 49.042969 63.5625 C 50.265625 63.464844 51.46875 63.535156 52.691406 63.535156 C 52.734375 64.242188 52.480469 64.585938 51.890625 64.5625 Z M 58.640625 34.292969 C 59.949219 31.585938 62.671875 30.5625 65.140625 30.074219 C 67.015625 29.804688 69.402344 30.632812 69.886719 33.023438 C 71.234375 36.609375 69.738281 40.585938 67.964844 43.609375 C 66.933594 44.730469 65.75 45.632812 64.78125 46.828125 C 63.597656 44.097656 60.984375 42.878906 58.578125 42.195312 C 59.023438 39.5625 58.683594 36.902344 58.640625 34.292969 Z M 44.804688 31.757812 C 45.394531 29.464844 46.914062 27.269531 49.066406 26.925781 C 51.175781 26.046875 53.113281 28 54.253906 29.855469 C 54.84375 31.097656 55.75 32 56.722656 32.804688 C 57.796875 36.804688 57.523438 41.269531 55.941406 45.046875 C 55.476562 46.269531 54.484375 47 53.535156 47.609375 C 50.984375 48.464844 48.304688 47.171875 46.492188 45.074219 L 46.53125 44.78125 C 45.246094 44.097656 45.035156 42.292969 44.804688 40.878906 C 43.726562 38 44 34.683594 44.804688 31.757812 Z M 12.0625 67.046875 C 11.304688 67.023438 10.566406 66.976562 9.804688 66.828125 C 9.679688 66 9.363281 64.78125 10.101562 64.21875 C 10.859375 63.730469 11.386719 62.953125 11.832031 62.097656 C 11.914062 62.121094 11.980469 62.121094 12.0625 62.121094 C 12.695312 62.21875 13.351562 62.195312 13.984375 62.046875 C 13.917969 63 12.800781 63.414062 12.949219 64.390625 C 13.140625 65.339844 13.601562 66.195312 13.941406 67.097656 C 13.308594 67.074219 12.695312 67.046875 12.0625 67.046875 Z M 15.460938 66.390625 C 15.332031 66.464844 15.078125 66.585938 14.972656 66.632812 C 14.550781 65.953125 14.214844 65.242188 13.960938 64.464844 C 14.257812 63.878906 14.511719 63.242188 14.742188 62.632812 C 15.101562 62.609375 15.480469 62.585938 15.839844 62.535156 C 15.269531 63.707031 14.550781 65.144531 15.460938 66.390625 Z M 16.597656 66.535156 C 16.515625 66.367188 16.324219 66 16.238281 65.804688 C 16.304688 65.074219 16.199219 64.242188 16.746094 63.707031 C 16.789062 63.660156 16.851562 63.5625 16.894531 63.488281 L 17.125 63.171875 C 17.167969 63.074219 17.230469 62.878906 17.253906 62.78125 L 17.335938 63.046875 L 17.632812 62.902344 C 17.527344 63.632812 17.0625 64.171875 16.660156 64.730469 C 17.378906 64.78125 17.546875 67.195312 16.597656 66.535156 Z M 18.140625 64.488281 C 18.246094 64.121094 18.414062 63.855469 18.625 63.660156 C 19.363281 63 20.628906 63.171875 21.515625 63.097656 C 22.570312 63.269531 23.875 62.78125 24.679688 63.828125 C 24.59375 64.046875 24.425781 64.488281 24.339844 64.707031 C 22.441406 64.609375 20.523438 64.5625 18.625 64.511719 C 18.457031 64.511719 18.308594 64.511719 18.140625 64.488281 Z M 26.933594 60.953125 C 25.839844 61.609375 24.613281 61.632812 23.433594 61.632812 C 23.179688 59.535156 24.320312 57.757812 25.164062 56.023438 C 25.542969 55.925781 25.921875 55.828125 26.300781 55.707031 C 25.773438 57.511719 26.070312 59.367188 26.933594 60.953125 Z M 23.898438 76.074219 C 24.699219 77.585938 25.351562 79.171875 26.113281 80.707031 C 26.914062 82.292969 28.242188 83.367188 29.488281 84.464844 C 32.144531 86.730469 36.535156 86.390625 38.410156 83.046875 C 39.613281 80.074219 38.117188 76.925781 37.082031 74.195312 C 35.308594 70.976562 30.691406 73.414062 30.816406 76.925781 C 31.828125 77.632812 32.96875 79.074219 34.234375 78.171875 C 34.214844 77.609375 34.191406 77.023438 34.191406 76.4375 C 34.488281 76.828125 34.71875 77.269531 35.015625 77.683594 C 34.296875 78.757812 33.136719 78.707031 32.105469 78.535156 C 31.683594 78 31.238281 77.464844 30.816406 76.925781 C 30.289062 73.4375 34.148438 70.488281 36.722656 72.269531 C 38.558594 73.632812 39.066406 76.21875 39.78125 78.4375 C 40.625 81.097656 39.382812 84.242188 37.207031 85.414062 C 35.519531 86.660156 33.453125 86.171875 31.578125 86.171875 C 29.003906 86.023438 27.335938 83.609375 25.667969 81.683594 C 24.046875 79.390625 22.992188 76.660156 21.726562 74.074219 C 21.070312 71.976562 20.691406 69.730469 20.542969 67.511719 C 20.777344 67.5625 21.21875 67.632812 21.472656 67.660156 C 22.464844 70.390625 22.527344 73.511719 23.898438 76.074219 Z M 18.917969 66.464844 C 18.835938 66.292969 18.707031 65.953125 18.625 65.78125 C 20.859375 65.367188 23.097656 65.976562 25.332031 66.074219 C 25.417969 66.195312 25.585938 66.414062 25.691406 66.535156 C 23.433594 66.535156 21.15625 66.730469 18.917969 66.464844 Z M 25.859375 63.925781 C 26.554688 62.925781 27.421875 62.121094 28.328125 61.339844 C 27.019531 59.074219 26.429688 55.707031 28.136719 53.511719 C 27.800781 53.046875 27.421875 52.242188 26.808594 52.660156 C 26.324219 53.171875 25.921875 53.78125 25.457031 54.339844 C 23.496094 56.074219 22.738281 58.828125 21.554688 61.195312 C 20.988281 61.171875 20.417969 61.144531 19.847656 61.144531 C 19.847656 60.953125 19.828125 60.535156 19.804688 60.316406 C 19.699219 59.21875 19.636719 58.144531 19.742188 57.046875 C 20.164062 55.121094 20.902344 53.316406 21.324219 51.367188 C 21.367188 51.21875 21.429688 50.902344 21.472656 50.730469 C 21.535156 50.488281 21.640625 50.023438 21.703125 49.78125 C 22.96875 45.804688 24.53125 41.730469 27.316406 38.855469 C 29.109375 36.804688 31.683594 36.242188 34.023438 35.390625 C 36.660156 35.21875 39.296875 36.144531 41.679688 37.414062 C 41.722656 37.4375 41.765625 37.464844 41.808594 37.488281 C 42.863281 37.976562 42.800781 39.414062 43.03125 40.511719 C 43.222656 41.339844 43.410156 42.195312 43.644531 43.023438 C 44 44.269531 44.464844 45.535156 45.371094 46.367188 C 46.890625 47.707031 48.472656 49.171875 50.371094 49.683594 C 52.058594 50.046875 53.917969 49.828125 55.371094 48.707031 C 56.636719 47.390625 57.226562 45.464844 58.535156 44.195312 C 59.761719 44.902344 61.132812 45.21875 62.3125 46.023438 C 63.535156 46.925781 64.125 48.535156 64.863281 49.925781 C 64.90625 50.046875 64.949219 50.171875 64.992188 50.292969 C 65.179688 50.804688 65.351562 51.316406 65.539062 51.828125 C 63.347656 54.367188 60.117188 55.023438 57.226562 55.804688 C 56.027344 56.21875 54.90625 55.488281 53.917969 54.828125 C 53.410156 55.144531 52.882812 55.511719 52.375 55.828125 C 50.5625 56.953125 48.453125 57.5625 46.386719 57.292969 C 45.878906 57.21875 45.351562 57.144531 44.84375 57.074219 C 45.078125 55.855469 45.351562 54.660156 45.5625 53.414062 C 45.308594 53.4375 44.78125 53.488281 44.527344 53.511719 C 43.664062 55.046875 43.621094 56.902344 43.789062 58.683594 C 43.832031 59.339844 43.875 60.023438 43.894531 60.683594 C 43.285156 59.804688 42.777344 58.828125 42.757812 57.683594 C 42.800781 56.414062 42.945312 55.171875 43.03125 53.902344 C 41.890625 53.339844 41.429688 54.855469 41.21875 55.828125 C 41.21875 56.367188 41.257812 56.902344 41.28125 57.4375 C 39.277344 57.976562 37.144531 58.242188 35.164062 57.488281 C 33.726562 56.953125 32.167969 56.902344 30.816406 56.046875 C 30.773438 55.414062 30.710938 54.757812 30.667969 54.121094 C 30.269531 54.023438 29.890625 53.953125 29.488281 53.855469 C 28.960938 55.488281 28.222656 57.144531 28.308594 58.953125 C 28.582031 60.121094 29.425781 61 30.058594 61.953125 C 29.128906 62.269531 27.84375 62.023438 27.210938 63.023438 C 26.828125 64.976562 28.371094 66.097656 29.363281 67.292969 C 27.949219 66.632812 26.34375 65.757812 25.859375 63.925781 Z M 43.558594 62.5625 C 40.941406 62.609375 38.304688 62.707031 35.691406 62.4375 C 35.859375 61.4375 36.152344 60.464844 36.386719 59.464844 C 38.222656 59.390625 40.058594 59.464844 41.890625 59.367188 C 42.777344 60.144531 43.15625 61.414062 43.558594 62.5625 Z M 34.699219 62.269531 C 34.003906 62.195312 33.328125 62.144531 32.652344 62 C 33.558594 61.292969 34.234375 60.4375 34.53125 59.195312 L 34.886719 58.976562 C 34.953125 60.074219 35.394531 61.339844 34.699219 62.269531 Z M 32.632812 58.609375 C 32.503906 59.171875 32.398438 59.730469 32.316406 60.316406 C 31.660156 60.730469 31.070312 61.292969 30.5 61.804688 C 29.742188 60.511719 29.445312 59 29.699219 57.464844 C 30.667969 57.804688 31.851562 57.757812 32.632812 58.609375 Z M 28.707031 64.609375 C 28.582031 64.097656 28.453125 63.5625 28.308594 63.046875 C 29.277344 63.316406 30.816406 62.660156 31.40625 63.585938 C 32.273438 63.757812 33.09375 64.21875 33.980469 64.242188 C 37.125 63.171875 40.457031 63.757812 43.683594 63.757812 C 43.707031 64.074219 43.75 64.730469 43.769531 65.046875 C 41.34375 65.144531 38.917969 65.171875 36.492188 65.097656 C 35.226562 65.097656 34.023438 64.121094 32.757812 64.5625 C 32.210938 64.609375 31.578125 65.292969 31.089844 64.707031 C 30.269531 64.660156 29.488281 64.632812 28.707031 64.609375 Z M 43.664062 66.976562 C 40.015625 67.121094 36.386719 67.046875 32.738281 67.023438 C 31.976562 67 31.195312 66.953125 30.4375 66.925781 C 30.246094 66.632812 30.058594 66.316406 29.867188 66.023438 C 30.816406 66.023438 31.765625 66.046875 32.738281 66.023438 C 36.46875 66.074219 40.203125 66.144531 43.9375 66.4375 C 43.855469 66.585938 43.726562 66.855469 43.664062 66.976562 Z M 44.210938 61.074219 C 44.632812 61.683594 45.097656 62.21875 45.605469 62.730469 C 46.28125 61.828125 47.777344 60.390625 48.390625 62.097656 C 47.375 62.660156 46.109375 63.074219 45.773438 64.488281 L 45.753906 64.660156 C 45.898438 65.902344 46.300781 67.097656 46.617188 68.292969 C 44.445312 66.683594 45.519531 63.316406 44.210938 61.074219 Z M 56.46875 69.855469 C 55.457031 69.292969 54.824219 68.171875 54.042969 67.292969 C 55.246094 67.902344 56.425781 68.5625 57.691406 69.046875 C 58.410156 68.707031 59.421875 66.878906 60.011719 68.21875 C 59.0625 69.195312 57.777344 70.195312 56.46875 69.855469 Z M 62.628906 66.855469 C 61.660156 67 60.75 66.292969 59.761719 66.390625 C 57.820312 66.535156 55.855469 66.730469 53.9375 66.242188 C 51.742188 66.78125 49.488281 66.535156 47.269531 66.683594 C 47.25 66.4375 47.230469 65.953125 47.207031 65.707031 C 49.464844 65.488281 51.722656 65.585938 53.9375 66.097656 C 56.003906 65.78125 58.113281 66.074219 60.183594 65.660156 C 61.027344 65.730469 62.820312 65.292969 62.628906 66.855469 Z M 58.917969 64.78125 C 57.648438 64.585938 56.320312 64.855469 55.078125 64.414062 C 55.160156 64.242188 55.328125 63.878906 55.414062 63.683594 C 57.671875 63.464844 59.929688 63.097656 62.226562 63.242188 C 62.859375 63.390625 63.347656 63.976562 63.875 64.367188 C 62.332031 65.242188 60.5625 65.023438 58.917969 64.78125 Z M 69.90625 65.878906 C 68.199219 66.242188 66.59375 67.121094 64.84375 67.171875 C 64.886719 66.632812 64.90625 66.074219 64.90625 65.535156 C 65.097656 65.390625 65.496094 65.074219 65.707031 64.925781 C 65.75 64.339844 65.8125 63.757812 65.855469 63.171875 C 67.269531 63.097656 68.597656 63.707031 69.992188 63.878906 C 70.011719 64.511719 70.179688 65.242188 69.90625 65.878906 Z M 69.90625 65.878906 "/>
<path style=" stroke:none;fill-rule:nonzero;fill:rgb(59.215689%,92.156863%,45.490196%);fill-opacity:1;" d="M 33.855469 50.855469 C 34.402344 51.464844 34.929688 52.144531 35.648438 52.488281 C 36.996094 53.097656 37.945312 54.5625 39.359375 55.074219 C 39.234375 55.316406 39.109375 55.585938 38.980469 55.828125 C 37.0625 55.121094 35.015625 55.660156 33.09375 54.953125 C 34.171875 54.292969 34.171875 52.902344 33.621094 51.828125 C 33.664062 51.585938 33.792969 51.097656 33.855469 50.855469 Z M 33.855469 50.855469 "/>
<path style=" stroke:none;fill-rule:nonzero;fill:rgb(51.764709%,79.607844%,44.313726%);fill-opacity:1;" d="M 21.367188 57.488281 C 22.695312 56.195312 22.527344 53.316406 24.59375 53.023438 C 24.890625 53.464844 25.164062 53.902344 25.4375 54.339844 C 23.476562 56.074219 22.714844 58.828125 21.535156 61.195312 C 20.964844 61.171875 20.394531 61.144531 19.828125 61.144531 C 19.828125 60.953125 19.804688 60.535156 19.785156 60.316406 C 20.566406 59.535156 20.523438 58.195312 21.367188 57.488281 Z M 21.367188 57.488281 "/>
<path style=" stroke:none;fill-rule:nonzero;fill:rgb(42.352942%,72.549021%,37.64706%);fill-opacity:1;" d="M 49.171875 53.976562 C 50.289062 54.488281 51.320312 55.171875 52.375 55.828125 C 50.5625 56.953125 48.453125 57.5625 46.386719 57.292969 C 46.28125 56.390625 46.257812 55.488281 46.34375 54.585938 C 46.53125 54.5625 46.914062 54.511719 47.101562 54.464844 C 47.292969 55.097656 47.480469 55.730469 47.671875 56.390625 C 48.199219 55.609375 48.707031 54.804688 49.171875 53.976562 Z M 49.171875 53.976562 "/>
<path style=" stroke:none;fill-rule:nonzero;fill:rgb(46.666667%,77.64706%,42.352942%);fill-opacity:1;" d="M 31.722656 54.730469 C 32.0625 54.78125 32.738281 54.878906 33.09375 54.953125 C 35.015625 55.660156 37.0625 55.121094 38.980469 55.828125 C 39.109375 55.585938 39.234375 55.316406 39.359375 55.074219 C 39.992188 55.339844 40.605469 55.5625 41.238281 55.804688 C 41.238281 56.339844 41.28125 56.878906 41.300781 57.414062 C 39.296875 57.953125 37.167969 58.21875 35.183594 57.464844 C 35.394531 57.292969 35.816406 56.953125 36.027344 56.78125 C 34.53125 56.316406 32.863281 56.074219 31.722656 54.730469 Z M 31.722656 54.730469 "/>
<path style=" stroke:none;fill-rule:nonzero;fill:rgb(81.568629%,48.235294%,51.764709%);fill-opacity:1;" d="M 11.851562 62.097656 C 12.570312 62.21875 13.285156 62.21875 14.003906 62.046875 C 13.941406 63 12.824219 63.414062 12.96875 64.390625 C 13.160156 65.339844 13.625 66.195312 13.960938 67.097656 C 12.589844 67.023438 11.199219 67.121094 9.847656 66.828125 C 9.722656 66 9.40625 64.78125 10.144531 64.21875 C 10.882812 63.707031 11.410156 62.953125 11.851562 62.097656 Z M 11.851562 62.097656 "/>
<path style=" stroke:none;fill-rule:nonzero;fill:rgb(99.607843%,99.607843%,99.607843%);fill-opacity:1;" d="M 65.855469 63.171875 C 67.269531 63.097656 68.597656 63.707031 69.992188 63.878906 C 69.992188 64.535156 70.160156 65.269531 69.886719 65.902344 C 68.175781 66.269531 66.574219 67.144531 64.824219 67.195312 C 64.863281 66.660156 64.886719 66.097656 64.886719 65.5625 C 65.074219 65.414062 65.476562 65.097656 65.6875 64.953125 C 65.75 64.339844 65.8125 63.757812 65.855469 63.171875 Z M 65.855469 63.171875 "/>
<path style=" stroke:none;fill-rule:nonzero;fill:rgb(88.235295%,79.607844%,52.549022%);fill-opacity:1;" d="M 28.308594 63.046875 C 29.277344 63.316406 30.816406 62.660156 31.40625 63.585938 C 31.238281 63.5625 30.902344 63.511719 30.734375 63.488281 C 30.839844 63.878906 30.945312 64.292969 31.070312 64.683594 C 30.289062 64.683594 29.488281 64.632812 28.707031 64.632812 C 28.582031 64.097656 28.433594 63.5625 28.308594 63.046875 M 18.625 65.78125 C 20.859375 65.367188 23.097656 65.976562 25.332031 66.074219 C 25.417969 66.195312 25.585938 66.414062 25.691406 66.535156 C 23.433594 66.535156 21.15625 66.730469 18.917969 66.464844 C 18.835938 66.292969 18.6875 65.953125 18.625 65.78125 Z M 18.625 65.78125 "/>
<path style=" stroke:none;fill-rule:nonzero;fill:rgb(86.666667%,76.47059%,46.666667%);fill-opacity:1;" d="M 18.140625 64.488281 C 18.5625 62.878906 20.375 63.171875 21.535156 63.097656 C 22.589844 63.269531 23.898438 62.78125 24.699219 63.828125 C 24.613281 64.046875 24.445312 64.488281 24.363281 64.707031 C 22.273438 64.585938 20.207031 64.5625 18.140625 64.488281 M 32.738281 66.046875 C 36.46875 66.097656 40.203125 66.171875 43.9375 66.464844 C 43.875 66.609375 43.726562 66.878906 43.664062 67 C 40.015625 67.144531 36.386719 67.074219 32.738281 67.046875 C 32.738281 66.78125 32.738281 66.292969 32.738281 66.046875 Z M 32.738281 66.046875 "/>
<path style=" stroke:none;fill-rule:nonzero;fill:rgb(86.274511%,77.254903%,46.27451%);fill-opacity:1;" d="M 30.734375 63.488281 C 30.902344 63.511719 31.238281 63.5625 31.40625 63.585938 C 32.273438 63.757812 33.09375 64.21875 33.980469 64.242188 C 37.125 63.171875 40.457031 63.757812 43.683594 63.757812 C 43.707031 64.074219 43.75 64.730469 43.769531 65.046875 C 41.34375 65.144531 38.917969 65.171875 36.492188 65.097656 C 35.226562 65.097656 34.023438 64.121094 32.757812 64.5625 C 32.210938 64.609375 31.578125 65.292969 31.089844 64.707031 C 30.945312 64.269531 30.839844 63.878906 30.734375 63.488281 M 29.867188 66.023438 C 30.816406 66.023438 31.765625 66.046875 32.738281 66.023438 C 32.738281 66.269531 32.738281 66.78125 32.738281 67.023438 C 31.976562 67 31.195312 66.953125 30.4375 66.925781 C 30.246094 66.632812 30.058594 66.339844 29.867188 66.023438 Z M 29.867188 66.023438 "/>
<path style=" stroke:none;fill-rule:nonzero;fill:rgb(96.078432%,84.313726%,46.27451%);fill-opacity:1;" d="M 47.566406 64.511719 C 47.417969 63.511719 48.515625 63.707031 49.042969 63.5625 C 50.265625 63.464844 51.46875 63.535156 52.691406 63.535156 C 52.757812 64.242188 52.503906 64.585938 51.914062 64.5625 C 50.457031 64.609375 49 64.609375 47.566406 64.511719 M 55.414062 63.683594 C 57.671875 63.464844 59.929688 63.097656 62.226562 63.242188 C 62.859375 63.390625 63.347656 63.976562 63.875 64.367188 C 62.332031 65.242188 60.582031 65.046875 58.917969 64.78125 C 57.648438 64.585938 56.320312 64.855469 55.078125 64.414062 C 55.160156 64.21875 55.328125 63.855469 55.414062 63.683594 M 47.207031 65.730469 C 49.464844 65.511719 51.722656 65.609375 53.9375 66.121094 C 56.003906 65.804688 58.113281 66.097656 60.183594 65.683594 C 61.046875 65.757812 62.839844 65.316406 62.628906 66.878906 C 61.660156 67.023438 60.75 66.316406 59.761719 66.414062 C 57.820312 66.5625 55.855469 66.757812 53.9375 66.269531 C 51.742188 66.804688 49.488281 66.5625 47.269531 66.707031 C 47.25 66.464844 47.230469 65.976562 47.207031 65.730469 Z M 47.207031 65.730469 "/>
<path style=" stroke:none;fill-rule:nonzero;fill:rgb(58.431375%,61.56863%,39.215687%);fill-opacity:1;" d="M 45.753906 64.683594 C 45.753906 64.632812 45.773438 64.5625 45.773438 64.511719 Z M 45.753906 64.683594 "/>
</g>
</svg>
